M48
;DRILL file {KiCad 4.0.7-e2-6376~61~ubuntu18.04.1} date Wed Jul 25 19:22:53 2018
;FORMAT={-:-/ absolute / inch / decimal}
FMAT,2
INCH,TZ
T1C0.016
T2C0.024
T3C0.031
T4C0.032
T5C0.035
T6C0.039
T7C0.040
T8C0.043
T9C0.047
T10C0.091
T11C0.118
%
G90
G05
M72
T1
X4.4677Y-3.7146
X4.9732Y-2.8772
X5.0098Y-3.9193
X5.115Y-3.9331
X5.2181Y-3.9331
X5.3543Y-3.2677
X5.8933Y-2.8193
X6.0445Y-3.6457
X6.5035Y-4.1386
T2
X3.937Y-2.9528
X3.987Y-2.9028
X4.037Y-2.9528
X4.4882Y-2.9921
X4.5382Y-2.9421
X4.5882Y-2.9921
T3
X3.5728Y-5.4331
X3.9728Y-5.4331
X3.9764Y-3.1102
X4.0945Y-5.4331
X4.1559Y-2.9811
X4.3528Y-2.9811
X4.3764Y-3.1102
X4.4945Y-5.4331
X4.5177Y-3.4744
X4.6063Y-5.4331
X4.7638Y-2.9921
X4.9016Y-2.9921
X4.9177Y-3.4744
X4.9213Y-3.6122
X5.0063Y-5.4331
X5.1181Y-5.4331
X5.1283Y-2.9591
X5.1283Y-3.1559
X5.3189Y-2.8949
X5.3213Y-3.6122
X5.3543Y-2.9921
X5.3543Y-3.189
X5.4551Y-3.476
X5.4551Y-3.6728
X5.4957Y-3.1496
X5.5181Y-5.4331
X5.6299Y-5.4331
X5.7189Y-2.8949
X5.8957Y-3.1496
X6.0299Y-5.4331
X6.1417Y-5.4331
X6.1713Y-3.6319
X6.5417Y-5.4331
X6.5713Y-3.6319
T4
X4.0177Y-3.5823
X4.1177Y-3.5823
X4.2177Y-3.5823
T5
X6.6142Y-3.5433
X6.7142Y-3.5433
X6.8146Y-2.828
X6.8146Y-2.9854
X6.8146Y-3.1429
T6
X6.1122Y-3.2382
X6.2303Y-5.7579
X6.3287Y-5.7579
X6.4114Y-3.2382
X6.4272Y-5.7579
T7
X3.8896Y-3.3445
X3.9896Y-3.3445
X4.0896Y-3.3445
X4.1896Y-3.3445
X4.2496Y-5.2445
X4.2896Y-3.3445
X4.3496Y-5.2445
X4.3896Y-3.3445
X4.4496Y-5.2445
X4.4896Y-3.3445
X4.5496Y-5.2445
X4.5896Y-3.3445
X4.6496Y-5.2445
X4.6896Y-3.3445
X4.7496Y-5.2445
X4.7896Y-3.3445
X4.8496Y-5.2445
X4.9496Y-3.3445
X4.9496Y-5.2445
X5.0496Y-3.3445
X5.1496Y-3.3445
X5.1496Y-5.2445
X5.2496Y-3.3445
X5.2496Y-5.2445
X5.3496Y-3.3445
X5.3496Y-5.2445
X5.4496Y-3.3445
X5.4496Y-5.2445
X5.5496Y-3.3445
X5.5496Y-5.2445
X5.6496Y-3.3445
X5.6496Y-5.2445
X5.6546Y-4.1445
X5.6546Y-4.2445
X5.6546Y-4.3445
X5.7496Y-5.2445
X5.7546Y-4.1445
X5.7546Y-4.2445
X5.7546Y-4.3445
X5.811Y-2.5787
X5.811Y-2.6772
X5.8496Y-3.3445
X5.8496Y-5.2445
X5.8937Y-2.5787
X5.9496Y-3.3445
X5.9961Y-2.5787
X6.0496Y-3.3445
X6.0496Y-5.2445
X6.0787Y-2.5787
X6.0787Y-2.6772
X6.1496Y-3.3445
X6.1496Y-5.2445
X6.2496Y-3.3445
X6.2496Y-5.2445
X6.3496Y-3.3445
X6.3496Y-5.2445
X6.4496Y-3.3445
X6.4496Y-5.2445
X6.5496Y-3.3445
X6.5496Y-5.2445
X6.6496Y-5.2445
X6.7496Y-5.2445
X6.8496Y-3.3445
X6.8496Y-3.4445
X6.8496Y-3.5445
X6.8496Y-3.6445
X6.8496Y-3.7445
X6.8496Y-3.8445
X6.8496Y-3.9445
X6.8496Y-4.0445
X6.8496Y-4.1445
X6.8496Y-4.2445
X6.8496Y-4.3445
X6.8496Y-4.4445
X6.8496Y-4.5445
X6.8496Y-4.6445
X6.8496Y-4.7445
X6.8496Y-4.8445
X6.8496Y-4.9445
X6.8496Y-5.0445
X6.9496Y-3.3445
X6.9496Y-3.4445
X6.9496Y-3.5445
X6.9496Y-3.6445
X6.9496Y-3.7445
X6.9496Y-3.8445
X6.9496Y-3.9445
X6.9496Y-4.0445
X6.9496Y-4.1445
X6.9496Y-4.2445
X6.9496Y-4.3445
X6.9496Y-4.4445
X6.9496Y-4.5445
X6.9496Y-4.6445
X6.9496Y-4.7445
X6.9496Y-4.8445
X6.9496Y-4.9445
X6.9496Y-5.0445
T8
X3.6614Y-5.5906
X3.6614Y-5.7677
X3.9173Y-5.5906
X3.9173Y-5.7677
X4.0551Y-5.5906
X4.0551Y-5.7677
X4.311Y-5.5906
X4.311Y-5.7677
X4.4488Y-5.5906
X4.4488Y-5.7677
X4.7047Y-5.5906
X4.7047Y-5.7677
X4.8524Y-5.5906
X4.8524Y-5.7677
X5.1083Y-5.5906
X5.1083Y-5.7677
X5.2559Y-5.5906
X5.2559Y-5.7677
X5.5118Y-5.5906
X5.5118Y-5.7677
X5.6693Y-5.5906
X5.6693Y-5.7677
X5.9252Y-5.5906
X5.9252Y-5.7677
T9
X3.6122Y-2.7228
X3.7106Y-2.7228
X3.8091Y-2.5257
X3.9075Y-2.7228
X3.9173Y-3.8091
X4.0059Y-2.7228
X4.0173Y-3.8091
X4.1173Y-3.8091
X4.1339Y-2.7228
X4.2173Y-3.8091
X4.2323Y-2.7228
X4.3173Y-3.8091
X4.3307Y-2.5257
X4.4173Y-3.8091
X4.4291Y-2.7228
X4.5173Y-3.8091
X4.5276Y-2.7228
X4.6173Y-3.8091
X4.6555Y-2.7228
X4.7173Y-3.8091
X4.7539Y-2.7228
X4.8173Y-3.8091
X4.8524Y-2.5257
X4.9173Y-3.8091
X4.9508Y-2.7228
X5.0173Y-3.8091
X5.0492Y-2.7228
X5.1173Y-3.8091
X5.1772Y-2.7228
X5.2173Y-3.8091
X5.2756Y-2.7228
X5.3173Y-3.8091
X5.374Y-2.5257
X5.4173Y-3.8091
X5.4724Y-2.7228
X5.5709Y-2.7228
X6.7457Y-2.7492
X6.7457Y-3.2217
X6.9819Y-2.7492
X6.9819Y-3.2217
T10
X6.1319Y-5.628
X6.5256Y-5.628
T11
X3.7008Y-3.8091
X3.7008Y-5.0296
X6.6535Y-5.0296
X6.6535Y-3.8091
T3
X5.6791Y-2.4882G85X5.6791Y-2.4331
G05
X5.9724Y-2.4291G85X5.9173Y-2.4291
G05
X6.2106Y-2.4882G85X6.2106Y-2.4331
G05
T6
X6.311Y-2.7067G85X6.311Y-2.7854
G05
X6.5354Y-2.628G85X6.4567Y-2.628
G05
X6.5354Y-2.8642G85X6.4567Y-2.8642
G05
T0
M30
