G04 #@! TF.FileFunction,Legend,Top*
%FSLAX46Y46*%
G04 Gerber Fmt 4.6, Leading zero omitted, Abs format (unit mm)*
G04 Created by KiCad (PCBNEW 4.0.7-e2-6376~61~ubuntu18.04.1) date Wed Jul 25 19:22:43 2018*
%MOMM*%
%LPD*%
G01*
G04 APERTURE LIST*
%ADD10C,0.100000*%
%ADD11C,0.120000*%
%ADD12C,0.150000*%
G04 APERTURE END LIST*
D10*
D11*
X166650000Y-82250000D02*
G75*
G03X166650000Y-82250000I-7600000J0D01*
G01*
X126840000Y-76000000D02*
G75*
G03X126840000Y-76000000I-4090000J0D01*
G01*
X122750000Y-71950000D02*
X122750000Y-80050000D01*
X122790000Y-71950000D02*
X122790000Y-80050000D01*
X122830000Y-71950000D02*
X122830000Y-80050000D01*
X122870000Y-71951000D02*
X122870000Y-80049000D01*
X122910000Y-71953000D02*
X122910000Y-80047000D01*
X122950000Y-71954000D02*
X122950000Y-80046000D01*
X122990000Y-71957000D02*
X122990000Y-80043000D01*
X123030000Y-71959000D02*
X123030000Y-80041000D01*
X123070000Y-71962000D02*
X123070000Y-80038000D01*
X123110000Y-71965000D02*
X123110000Y-80035000D01*
X123150000Y-71969000D02*
X123150000Y-80031000D01*
X123190000Y-71973000D02*
X123190000Y-80027000D01*
X123230000Y-71978000D02*
X123230000Y-80022000D01*
X123270000Y-71983000D02*
X123270000Y-80017000D01*
X123310000Y-71988000D02*
X123310000Y-80012000D01*
X123350000Y-71994000D02*
X123350000Y-80006000D01*
X123390000Y-72000000D02*
X123390000Y-80000000D01*
X123430000Y-72006000D02*
X123430000Y-79994000D01*
X123471000Y-72013000D02*
X123471000Y-79987000D01*
X123511000Y-72021000D02*
X123511000Y-79979000D01*
X123551000Y-72029000D02*
X123551000Y-75020000D01*
X123551000Y-76980000D02*
X123551000Y-79971000D01*
X123591000Y-72037000D02*
X123591000Y-75020000D01*
X123591000Y-76980000D02*
X123591000Y-79963000D01*
X123631000Y-72045000D02*
X123631000Y-75020000D01*
X123631000Y-76980000D02*
X123631000Y-79955000D01*
X123671000Y-72054000D02*
X123671000Y-75020000D01*
X123671000Y-76980000D02*
X123671000Y-79946000D01*
X123711000Y-72064000D02*
X123711000Y-75020000D01*
X123711000Y-76980000D02*
X123711000Y-79936000D01*
X123751000Y-72074000D02*
X123751000Y-75020000D01*
X123751000Y-76980000D02*
X123751000Y-79926000D01*
X123791000Y-72084000D02*
X123791000Y-75020000D01*
X123791000Y-76980000D02*
X123791000Y-79916000D01*
X123831000Y-72095000D02*
X123831000Y-75020000D01*
X123831000Y-76980000D02*
X123831000Y-79905000D01*
X123871000Y-72106000D02*
X123871000Y-75020000D01*
X123871000Y-76980000D02*
X123871000Y-79894000D01*
X123911000Y-72117000D02*
X123911000Y-75020000D01*
X123911000Y-76980000D02*
X123911000Y-79883000D01*
X123951000Y-72130000D02*
X123951000Y-75020000D01*
X123951000Y-76980000D02*
X123951000Y-79870000D01*
X123991000Y-72142000D02*
X123991000Y-75020000D01*
X123991000Y-76980000D02*
X123991000Y-79858000D01*
X124031000Y-72155000D02*
X124031000Y-75020000D01*
X124031000Y-76980000D02*
X124031000Y-79845000D01*
X124071000Y-72168000D02*
X124071000Y-75020000D01*
X124071000Y-76980000D02*
X124071000Y-79832000D01*
X124111000Y-72182000D02*
X124111000Y-75020000D01*
X124111000Y-76980000D02*
X124111000Y-79818000D01*
X124151000Y-72197000D02*
X124151000Y-75020000D01*
X124151000Y-76980000D02*
X124151000Y-79803000D01*
X124191000Y-72211000D02*
X124191000Y-75020000D01*
X124191000Y-76980000D02*
X124191000Y-79789000D01*
X124231000Y-72227000D02*
X124231000Y-75020000D01*
X124231000Y-76980000D02*
X124231000Y-79773000D01*
X124271000Y-72242000D02*
X124271000Y-75020000D01*
X124271000Y-76980000D02*
X124271000Y-79758000D01*
X124311000Y-72259000D02*
X124311000Y-75020000D01*
X124311000Y-76980000D02*
X124311000Y-79741000D01*
X124351000Y-72275000D02*
X124351000Y-75020000D01*
X124351000Y-76980000D02*
X124351000Y-79725000D01*
X124391000Y-72293000D02*
X124391000Y-75020000D01*
X124391000Y-76980000D02*
X124391000Y-79707000D01*
X124431000Y-72310000D02*
X124431000Y-75020000D01*
X124431000Y-76980000D02*
X124431000Y-79690000D01*
X124471000Y-72329000D02*
X124471000Y-75020000D01*
X124471000Y-76980000D02*
X124471000Y-79671000D01*
X124511000Y-72348000D02*
X124511000Y-75020000D01*
X124511000Y-76980000D02*
X124511000Y-79652000D01*
X124551000Y-72367000D02*
X124551000Y-75020000D01*
X124551000Y-76980000D02*
X124551000Y-79633000D01*
X124591000Y-72387000D02*
X124591000Y-75020000D01*
X124591000Y-76980000D02*
X124591000Y-79613000D01*
X124631000Y-72407000D02*
X124631000Y-75020000D01*
X124631000Y-76980000D02*
X124631000Y-79593000D01*
X124671000Y-72428000D02*
X124671000Y-75020000D01*
X124671000Y-76980000D02*
X124671000Y-79572000D01*
X124711000Y-72450000D02*
X124711000Y-75020000D01*
X124711000Y-76980000D02*
X124711000Y-79550000D01*
X124751000Y-72472000D02*
X124751000Y-75020000D01*
X124751000Y-76980000D02*
X124751000Y-79528000D01*
X124791000Y-72495000D02*
X124791000Y-75020000D01*
X124791000Y-76980000D02*
X124791000Y-79505000D01*
X124831000Y-72518000D02*
X124831000Y-75020000D01*
X124831000Y-76980000D02*
X124831000Y-79482000D01*
X124871000Y-72542000D02*
X124871000Y-75020000D01*
X124871000Y-76980000D02*
X124871000Y-79458000D01*
X124911000Y-72566000D02*
X124911000Y-75020000D01*
X124911000Y-76980000D02*
X124911000Y-79434000D01*
X124951000Y-72592000D02*
X124951000Y-75020000D01*
X124951000Y-76980000D02*
X124951000Y-79408000D01*
X124991000Y-72617000D02*
X124991000Y-75020000D01*
X124991000Y-76980000D02*
X124991000Y-79383000D01*
X125031000Y-72644000D02*
X125031000Y-75020000D01*
X125031000Y-76980000D02*
X125031000Y-79356000D01*
X125071000Y-72671000D02*
X125071000Y-75020000D01*
X125071000Y-76980000D02*
X125071000Y-79329000D01*
X125111000Y-72699000D02*
X125111000Y-75020000D01*
X125111000Y-76980000D02*
X125111000Y-79301000D01*
X125151000Y-72728000D02*
X125151000Y-75020000D01*
X125151000Y-76980000D02*
X125151000Y-79272000D01*
X125191000Y-72757000D02*
X125191000Y-75020000D01*
X125191000Y-76980000D02*
X125191000Y-79243000D01*
X125231000Y-72787000D02*
X125231000Y-75020000D01*
X125231000Y-76980000D02*
X125231000Y-79213000D01*
X125271000Y-72818000D02*
X125271000Y-75020000D01*
X125271000Y-76980000D02*
X125271000Y-79182000D01*
X125311000Y-72850000D02*
X125311000Y-75020000D01*
X125311000Y-76980000D02*
X125311000Y-79150000D01*
X125351000Y-72882000D02*
X125351000Y-75020000D01*
X125351000Y-76980000D02*
X125351000Y-79118000D01*
X125391000Y-72916000D02*
X125391000Y-75020000D01*
X125391000Y-76980000D02*
X125391000Y-79084000D01*
X125431000Y-72950000D02*
X125431000Y-75020000D01*
X125431000Y-76980000D02*
X125431000Y-79050000D01*
X125471000Y-72985000D02*
X125471000Y-75020000D01*
X125471000Y-76980000D02*
X125471000Y-79015000D01*
X125511000Y-73021000D02*
X125511000Y-78979000D01*
X125551000Y-73058000D02*
X125551000Y-78942000D01*
X125591000Y-73096000D02*
X125591000Y-78904000D01*
X125631000Y-73135000D02*
X125631000Y-78865000D01*
X125671000Y-73176000D02*
X125671000Y-78824000D01*
X125711000Y-73217000D02*
X125711000Y-78783000D01*
X125751000Y-73260000D02*
X125751000Y-78740000D01*
X125791000Y-73303000D02*
X125791000Y-78697000D01*
X125831000Y-73348000D02*
X125831000Y-78652000D01*
X125871000Y-73395000D02*
X125871000Y-78605000D01*
X125911000Y-73443000D02*
X125911000Y-78557000D01*
X125951000Y-73492000D02*
X125951000Y-78508000D01*
X125991000Y-73543000D02*
X125991000Y-78457000D01*
X126031000Y-73596000D02*
X126031000Y-78404000D01*
X126071000Y-73651000D02*
X126071000Y-78349000D01*
X126111000Y-73707000D02*
X126111000Y-78293000D01*
X126151000Y-73766000D02*
X126151000Y-78234000D01*
X126191000Y-73827000D02*
X126191000Y-78173000D01*
X126231000Y-73891000D02*
X126231000Y-78109000D01*
X126271000Y-73957000D02*
X126271000Y-78043000D01*
X126311000Y-74026000D02*
X126311000Y-77974000D01*
X126351000Y-74098000D02*
X126351000Y-77902000D01*
X126391000Y-74174000D02*
X126391000Y-77826000D01*
X126431000Y-74255000D02*
X126431000Y-77745000D01*
X126471000Y-74340000D02*
X126471000Y-77660000D01*
X126511000Y-74430000D02*
X126511000Y-77570000D01*
X126551000Y-74527000D02*
X126551000Y-77473000D01*
X126591000Y-74631000D02*
X126591000Y-77369000D01*
X126631000Y-74746000D02*
X126631000Y-77254000D01*
X126671000Y-74873000D02*
X126671000Y-77127000D01*
X126711000Y-75017000D02*
X126711000Y-76983000D01*
X126751000Y-75186000D02*
X126751000Y-76814000D01*
X126791000Y-75402000D02*
X126791000Y-76598000D01*
X126831000Y-75754000D02*
X126831000Y-76246000D01*
X118800000Y-76000000D02*
X120000000Y-76000000D01*
X119400000Y-75350000D02*
X119400000Y-76650000D01*
D12*
X158010400Y-58997600D02*
X158010400Y-60775600D01*
X143989600Y-64230000D02*
X143989600Y-72002400D01*
X143989600Y-72002400D02*
X158010400Y-72002400D01*
X158010400Y-72002400D02*
X158010400Y-64230000D01*
X158010400Y-58997600D02*
X143989600Y-58997600D01*
X143989600Y-58997600D02*
X143989600Y-60775600D01*
D11*
X113470000Y-77850000D02*
X117070000Y-77850000D01*
X113431522Y-77838478D02*
G75*
G02X115270000Y-73400000I1838478J1838478D01*
G01*
X117108478Y-77838478D02*
G75*
G03X115270000Y-73400000I-1838478J1838478D01*
G01*
X99470000Y-76850000D02*
X103070000Y-76850000D01*
X99431522Y-76838478D02*
G75*
G02X101270000Y-72400000I1838478J1838478D01*
G01*
X103108478Y-76838478D02*
G75*
G03X101270000Y-72400000I-1838478J1838478D01*
G01*
X116620000Y-86940000D02*
X116620000Y-89560000D01*
X116620000Y-89560000D02*
X123040000Y-89560000D01*
X123040000Y-89560000D02*
X123040000Y-86940000D01*
X123040000Y-86940000D02*
X116620000Y-86940000D01*
X115730000Y-88250000D02*
X116620000Y-88250000D01*
X123930000Y-88250000D02*
X123040000Y-88250000D01*
X136970000Y-72220000D02*
X136970000Y-74840000D01*
X136970000Y-74840000D02*
X143390000Y-74840000D01*
X143390000Y-74840000D02*
X143390000Y-72220000D01*
X143390000Y-72220000D02*
X136970000Y-72220000D01*
X136080000Y-73530000D02*
X136970000Y-73530000D01*
X144280000Y-73530000D02*
X143390000Y-73530000D01*
X165660000Y-145445000D02*
X165660000Y-149810000D01*
X155840000Y-145445000D02*
X155840000Y-149810000D01*
X163875000Y-144690000D02*
X157625000Y-144690000D01*
X165660000Y-149810000D02*
X155840000Y-149810000D01*
X164210000Y-149810000D02*
X164210000Y-150610000D01*
X157290000Y-149810000D02*
X157290000Y-150610000D01*
X164210000Y-149810000D02*
X157290000Y-149810000D01*
X164210000Y-150610000D02*
X157290000Y-150610000D01*
X163810000Y-150610000D02*
X163810000Y-159810000D01*
X157690000Y-150610000D02*
X157690000Y-159810000D01*
X163810000Y-150610000D02*
X157690000Y-150610000D01*
X163810000Y-159810000D02*
X157690000Y-159810000D01*
X102870000Y-77690000D02*
X102870000Y-80310000D01*
X102870000Y-80310000D02*
X109290000Y-80310000D01*
X109290000Y-80310000D02*
X109290000Y-77690000D01*
X109290000Y-77690000D02*
X102870000Y-77690000D01*
X101980000Y-79000000D02*
X102870000Y-79000000D01*
X110180000Y-79000000D02*
X109290000Y-79000000D01*
X92620000Y-136690000D02*
X92620000Y-139310000D01*
X92620000Y-139310000D02*
X99040000Y-139310000D01*
X99040000Y-139310000D02*
X99040000Y-136690000D01*
X99040000Y-136690000D02*
X92620000Y-136690000D01*
X91730000Y-138000000D02*
X92620000Y-138000000D01*
X99930000Y-138000000D02*
X99040000Y-138000000D01*
X105870000Y-136690000D02*
X105870000Y-139310000D01*
X105870000Y-139310000D02*
X112290000Y-139310000D01*
X112290000Y-139310000D02*
X112290000Y-136690000D01*
X112290000Y-136690000D02*
X105870000Y-136690000D01*
X104980000Y-138000000D02*
X105870000Y-138000000D01*
X113180000Y-138000000D02*
X112290000Y-138000000D01*
X118870000Y-136690000D02*
X118870000Y-139310000D01*
X118870000Y-139310000D02*
X125290000Y-139310000D01*
X125290000Y-139310000D02*
X125290000Y-136690000D01*
X125290000Y-136690000D02*
X118870000Y-136690000D01*
X117980000Y-138000000D02*
X118870000Y-138000000D01*
X126180000Y-138000000D02*
X125290000Y-138000000D01*
X131870000Y-136690000D02*
X131870000Y-139310000D01*
X131870000Y-139310000D02*
X138290000Y-139310000D01*
X138290000Y-139310000D02*
X138290000Y-136690000D01*
X138290000Y-136690000D02*
X131870000Y-136690000D01*
X130980000Y-138000000D02*
X131870000Y-138000000D01*
X139180000Y-138000000D02*
X138290000Y-138000000D01*
X144870000Y-136690000D02*
X144870000Y-139310000D01*
X144870000Y-139310000D02*
X151290000Y-139310000D01*
X151290000Y-139310000D02*
X151290000Y-136690000D01*
X151290000Y-136690000D02*
X144870000Y-136690000D01*
X143980000Y-138000000D02*
X144870000Y-138000000D01*
X152180000Y-138000000D02*
X151290000Y-138000000D01*
X157870000Y-136690000D02*
X157870000Y-139310000D01*
X157870000Y-139310000D02*
X164290000Y-139310000D01*
X164290000Y-139310000D02*
X164290000Y-136690000D01*
X164290000Y-136690000D02*
X157870000Y-136690000D01*
X156980000Y-138000000D02*
X157870000Y-138000000D01*
X165180000Y-138000000D02*
X164290000Y-138000000D01*
X126870000Y-90440000D02*
X126870000Y-93060000D01*
X126870000Y-93060000D02*
X133290000Y-93060000D01*
X133290000Y-93060000D02*
X133290000Y-90440000D01*
X133290000Y-90440000D02*
X126870000Y-90440000D01*
X125980000Y-91750000D02*
X126870000Y-91750000D01*
X134180000Y-91750000D02*
X133290000Y-91750000D01*
X147880000Y-81310000D02*
X147880000Y-78690000D01*
X147880000Y-78690000D02*
X141460000Y-78690000D01*
X141460000Y-78690000D02*
X141460000Y-81310000D01*
X141460000Y-81310000D02*
X147880000Y-81310000D01*
X148770000Y-80000000D02*
X147880000Y-80000000D01*
X140570000Y-80000000D02*
X141460000Y-80000000D01*
X98500000Y-141000000D02*
X94000000Y-141000000D01*
X99750000Y-145000000D02*
X99750000Y-143500000D01*
X94000000Y-147500000D02*
X98500000Y-147500000D01*
X92750000Y-143500000D02*
X92750000Y-145000000D01*
X108500000Y-141000000D02*
X104000000Y-141000000D01*
X109750000Y-145000000D02*
X109750000Y-143500000D01*
X104000000Y-147500000D02*
X108500000Y-147500000D01*
X102750000Y-143500000D02*
X102750000Y-145000000D01*
X118500000Y-141000000D02*
X114000000Y-141000000D01*
X119750000Y-145000000D02*
X119750000Y-143500000D01*
X114000000Y-147500000D02*
X118500000Y-147500000D01*
X112750000Y-143500000D02*
X112750000Y-145000000D01*
X128750000Y-141000000D02*
X124250000Y-141000000D01*
X130000000Y-145000000D02*
X130000000Y-143500000D01*
X124250000Y-147500000D02*
X128750000Y-147500000D01*
X123000000Y-143500000D02*
X123000000Y-145000000D01*
X139000000Y-141000000D02*
X134500000Y-141000000D01*
X140250000Y-145000000D02*
X140250000Y-143500000D01*
X134500000Y-147500000D02*
X139000000Y-147500000D01*
X133250000Y-143500000D02*
X133250000Y-145000000D01*
X149500000Y-141000000D02*
X145000000Y-141000000D01*
X150750000Y-145000000D02*
X150750000Y-143500000D01*
X145000000Y-147500000D02*
X149500000Y-147500000D01*
X143750000Y-143500000D02*
X143750000Y-145000000D01*
D12*
X80000000Y-82410000D02*
X80000000Y-135750000D01*
X179060000Y-95110000D02*
X179060000Y-83934000D01*
X181600000Y-97650000D02*
X179060000Y-95110000D01*
X181600000Y-131940000D02*
X181600000Y-97650000D01*
X179060000Y-134480000D02*
X181600000Y-131940000D01*
X179060000Y-135750000D02*
X179060000Y-134480000D01*
X177536000Y-82410000D02*
X179060000Y-83934000D01*
X80000000Y-135750000D02*
X179060000Y-135750000D01*
X80000000Y-82410000D02*
X177536000Y-82410000D01*
D11*
X160400000Y-67750000D02*
X160400000Y-58950000D01*
X160400000Y-58950000D02*
X169600000Y-58950000D01*
X163100000Y-73650000D02*
X160400000Y-73650000D01*
X160400000Y-73650000D02*
X160400000Y-71750000D01*
X169600000Y-58950000D02*
X169600000Y-73650000D01*
X169600000Y-73650000D02*
X167000000Y-73650000D01*
X128950000Y-80220000D02*
X128950000Y-75100000D01*
X131570000Y-80220000D02*
X131570000Y-75100000D01*
X128950000Y-80220000D02*
X129264000Y-80220000D01*
X131256000Y-80220000D02*
X131570000Y-80220000D01*
X128950000Y-75100000D02*
X129264000Y-75100000D01*
X131256000Y-75100000D02*
X131570000Y-75100000D01*
X139870000Y-88230000D02*
X139870000Y-93350000D01*
X137250000Y-88230000D02*
X137250000Y-93350000D01*
X139870000Y-88230000D02*
X139556000Y-88230000D01*
X137564000Y-88230000D02*
X137250000Y-88230000D01*
X139870000Y-93350000D02*
X139556000Y-93350000D01*
X137564000Y-93350000D02*
X137250000Y-93350000D01*
X105500000Y-74410000D02*
X110620000Y-74410000D01*
X105500000Y-77030000D02*
X110620000Y-77030000D01*
X105500000Y-74410000D02*
X105500000Y-74724000D01*
X105500000Y-76716000D02*
X105500000Y-77030000D01*
X110620000Y-74410000D02*
X110620000Y-74724000D01*
X110620000Y-76716000D02*
X110620000Y-77030000D01*
X134690000Y-81060000D02*
X134690000Y-75940000D01*
X137310000Y-81060000D02*
X137310000Y-75940000D01*
X134690000Y-81060000D02*
X135004000Y-81060000D01*
X136996000Y-81060000D02*
X137310000Y-81060000D01*
X134690000Y-75940000D02*
X135004000Y-75940000D01*
X136996000Y-75940000D02*
X137310000Y-75940000D01*
D12*
X101034000Y-88958000D02*
X101034000Y-90228000D01*
X101821400Y-89707300D02*
X101783300Y-89453300D01*
X101783300Y-89453300D02*
X101605500Y-89173900D01*
X101605500Y-89173900D02*
X101288000Y-88958000D01*
X101288000Y-88958000D02*
X100843500Y-88945300D01*
X100843500Y-88945300D02*
X100487900Y-89148500D01*
X100487900Y-89148500D02*
X100310100Y-89440600D01*
X100310100Y-89440600D02*
X100259300Y-89758100D01*
X100259300Y-89758100D02*
X100360900Y-90164500D01*
X100360900Y-90164500D02*
X100703800Y-90418500D01*
X100703800Y-90418500D02*
X100881600Y-90507400D01*
X109416000Y-92768000D02*
X99764000Y-92768000D01*
X99764000Y-89720000D02*
X99764000Y-88450000D01*
X99764000Y-88450000D02*
X109416000Y-88450000D01*
X109416000Y-88450000D02*
X109416000Y-93530000D01*
X99764000Y-93530000D02*
X99764000Y-90990000D01*
X99764000Y-90990000D02*
X99764000Y-89720000D01*
D11*
X170040000Y-83130000D02*
X170040000Y-81830000D01*
X171340000Y-83130000D02*
X170040000Y-83130000D01*
X177690000Y-70880000D02*
X177690000Y-80780000D01*
X170990000Y-80780000D02*
X170990000Y-70880000D01*
X176940000Y-82830000D02*
X171740000Y-82830000D01*
X171740000Y-68830000D02*
X176940000Y-68830000D01*
X170942335Y-88921392D02*
G75*
G03X167710000Y-88764484I-1672335J-1078608D01*
G01*
X170942335Y-91078608D02*
G75*
G02X167710000Y-91235516I-1672335J1078608D01*
G01*
X170311130Y-88920163D02*
G75*
G03X168229039Y-88920000I-1041130J-1079837D01*
G01*
X170311130Y-91079837D02*
G75*
G02X168229039Y-91080000I-1041130J1079837D01*
G01*
X167710000Y-88764000D02*
X167710000Y-88920000D01*
X167710000Y-91080000D02*
X167710000Y-91236000D01*
X158620000Y-90940000D02*
X158620000Y-93560000D01*
X158620000Y-93560000D02*
X165040000Y-93560000D01*
X165040000Y-93560000D02*
X165040000Y-90940000D01*
X165040000Y-90940000D02*
X158620000Y-90940000D01*
X157730000Y-92250000D02*
X158620000Y-92250000D01*
X165930000Y-92250000D02*
X165040000Y-92250000D01*
X91360000Y-130390000D02*
X171640000Y-130390000D01*
X171640000Y-130390000D02*
X171640000Y-94110000D01*
X171640000Y-94110000D02*
X92160000Y-94110000D01*
X91360000Y-94110000D02*
X91360000Y-130390000D01*
X91370000Y-94110000D02*
X92160000Y-94110000D01*
X98000000Y-93750000D02*
X101000000Y-93750000D01*
X99700000Y-104750000D02*
X163200000Y-104750000D01*
X99200280Y-119249320D02*
X99200280Y-105250000D01*
X163200660Y-119750000D02*
X99700000Y-119750000D01*
X163700000Y-105250000D02*
X163700000Y-119250000D01*
X163700000Y-105250000D02*
G75*
G03X163200000Y-104750000I-500000J0D01*
G01*
X163200660Y-119749700D02*
G75*
G03X163701040Y-119249320I0J500380D01*
G01*
X99200280Y-119249320D02*
G75*
G03X99700660Y-119749700I500380J0D01*
G01*
X99700660Y-104748460D02*
G75*
G03X99200280Y-105248840I0J-500380D01*
G01*
X94500000Y-99750000D02*
X167500000Y-99750000D01*
X167500000Y-99750000D02*
X167500000Y-124750000D01*
X167500000Y-124750000D02*
X94500000Y-124750000D01*
X94500000Y-124750000D02*
X94500000Y-99750000D01*
D12*
X121472000Y-64226000D02*
X119440000Y-64226000D01*
X119440000Y-64226000D02*
X119440000Y-60670000D01*
X119440000Y-60670000D02*
X127060000Y-60670000D01*
X127060000Y-60670000D02*
X127060000Y-64226000D01*
X127060000Y-64226000D02*
X125028000Y-64226000D01*
X118170000Y-59654000D02*
X117154000Y-59654000D01*
X129346000Y-59654000D02*
X128330000Y-59654000D01*
X120710000Y-57622000D02*
X120710000Y-59146000D01*
X125790000Y-59146000D02*
X125790000Y-57622000D01*
X120710000Y-58384000D02*
X125790000Y-58384000D01*
X118170000Y-59654000D02*
X118170000Y-59400000D01*
X118170000Y-59400000D02*
X118170000Y-59146000D01*
X118170000Y-59146000D02*
X128330000Y-59146000D01*
X128330000Y-59146000D02*
X128330000Y-59654000D01*
X120710000Y-57622000D02*
X125790000Y-57622000D01*
X117154000Y-71846000D02*
X117154000Y-59654000D01*
X129346000Y-59654000D02*
X129346000Y-71846000D01*
X129346000Y-71846000D02*
X117154000Y-71846000D01*
X94972000Y-64226000D02*
X92940000Y-64226000D01*
X92940000Y-64226000D02*
X92940000Y-60670000D01*
X92940000Y-60670000D02*
X100560000Y-60670000D01*
X100560000Y-60670000D02*
X100560000Y-64226000D01*
X100560000Y-64226000D02*
X98528000Y-64226000D01*
X91670000Y-59654000D02*
X90654000Y-59654000D01*
X102846000Y-59654000D02*
X101830000Y-59654000D01*
X94210000Y-57622000D02*
X94210000Y-59146000D01*
X99290000Y-59146000D02*
X99290000Y-57622000D01*
X94210000Y-58384000D02*
X99290000Y-58384000D01*
X91670000Y-59654000D02*
X91670000Y-59400000D01*
X91670000Y-59400000D02*
X91670000Y-59146000D01*
X91670000Y-59146000D02*
X101830000Y-59146000D01*
X101830000Y-59146000D02*
X101830000Y-59654000D01*
X94210000Y-57622000D02*
X99290000Y-57622000D01*
X90654000Y-71846000D02*
X90654000Y-59654000D01*
X102846000Y-59654000D02*
X102846000Y-71846000D01*
X102846000Y-71846000D02*
X90654000Y-71846000D01*
X108222000Y-64226000D02*
X106190000Y-64226000D01*
X106190000Y-64226000D02*
X106190000Y-60670000D01*
X106190000Y-60670000D02*
X113810000Y-60670000D01*
X113810000Y-60670000D02*
X113810000Y-64226000D01*
X113810000Y-64226000D02*
X111778000Y-64226000D01*
X104920000Y-59654000D02*
X103904000Y-59654000D01*
X116096000Y-59654000D02*
X115080000Y-59654000D01*
X107460000Y-57622000D02*
X107460000Y-59146000D01*
X112540000Y-59146000D02*
X112540000Y-57622000D01*
X107460000Y-58384000D02*
X112540000Y-58384000D01*
X104920000Y-59654000D02*
X104920000Y-59400000D01*
X104920000Y-59400000D02*
X104920000Y-59146000D01*
X104920000Y-59146000D02*
X115080000Y-59146000D01*
X115080000Y-59146000D02*
X115080000Y-59654000D01*
X107460000Y-57622000D02*
X112540000Y-57622000D01*
X103904000Y-71846000D02*
X103904000Y-59654000D01*
X116096000Y-59654000D02*
X116096000Y-71846000D01*
X116096000Y-71846000D02*
X103904000Y-71846000D01*
X134722000Y-64226000D02*
X132690000Y-64226000D01*
X132690000Y-64226000D02*
X132690000Y-60670000D01*
X132690000Y-60670000D02*
X140310000Y-60670000D01*
X140310000Y-60670000D02*
X140310000Y-64226000D01*
X140310000Y-64226000D02*
X138278000Y-64226000D01*
X131420000Y-59654000D02*
X130404000Y-59654000D01*
X142596000Y-59654000D02*
X141580000Y-59654000D01*
X133960000Y-57622000D02*
X133960000Y-59146000D01*
X139040000Y-59146000D02*
X139040000Y-57622000D01*
X133960000Y-58384000D02*
X139040000Y-58384000D01*
X131420000Y-59654000D02*
X131420000Y-59400000D01*
X131420000Y-59400000D02*
X131420000Y-59146000D01*
X131420000Y-59146000D02*
X141580000Y-59146000D01*
X141580000Y-59146000D02*
X141580000Y-59654000D01*
X133960000Y-57622000D02*
X139040000Y-57622000D01*
X130404000Y-71846000D02*
X130404000Y-59654000D01*
X142596000Y-59654000D02*
X142596000Y-71846000D01*
X142596000Y-71846000D02*
X130404000Y-71846000D01*
X158179048Y-73288571D02*
X158321905Y-73336190D01*
X158369524Y-73383810D01*
X158417143Y-73479048D01*
X158417143Y-73621905D01*
X158369524Y-73717143D01*
X158321905Y-73764762D01*
X158226667Y-73812381D01*
X157845714Y-73812381D01*
X157845714Y-72812381D01*
X158179048Y-72812381D01*
X158274286Y-72860000D01*
X158321905Y-72907619D01*
X158369524Y-73002857D01*
X158369524Y-73098095D01*
X158321905Y-73193333D01*
X158274286Y-73240952D01*
X158179048Y-73288571D01*
X157845714Y-73288571D01*
X158750476Y-72812381D02*
X159417143Y-72812381D01*
X158750476Y-73812381D01*
X159417143Y-73812381D01*
X160321905Y-73812381D02*
X159750476Y-73812381D01*
X160036190Y-73812381D02*
X160036190Y-72812381D01*
X159940952Y-72955238D01*
X159845714Y-73050476D01*
X159750476Y-73098095D01*
X154859048Y-79781429D02*
X155620953Y-79781429D01*
X155240001Y-80162381D02*
X155240001Y-79400476D01*
X122583334Y-71047143D02*
X122535715Y-71094762D01*
X122392858Y-71142381D01*
X122297620Y-71142381D01*
X122154762Y-71094762D01*
X122059524Y-70999524D01*
X122011905Y-70904286D01*
X121964286Y-70713810D01*
X121964286Y-70570952D01*
X122011905Y-70380476D01*
X122059524Y-70285238D01*
X122154762Y-70190000D01*
X122297620Y-70142381D01*
X122392858Y-70142381D01*
X122535715Y-70190000D01*
X122583334Y-70237619D01*
X123488096Y-70142381D02*
X123011905Y-70142381D01*
X122964286Y-70618571D01*
X123011905Y-70570952D01*
X123107143Y-70523333D01*
X123345239Y-70523333D01*
X123440477Y-70570952D01*
X123488096Y-70618571D01*
X123535715Y-70713810D01*
X123535715Y-70951905D01*
X123488096Y-71047143D01*
X123440477Y-71094762D01*
X123345239Y-71142381D01*
X123107143Y-71142381D01*
X123011905Y-71094762D01*
X122964286Y-71047143D01*
X149785714Y-70676781D02*
X149785714Y-69676781D01*
X150166667Y-69676781D01*
X150261905Y-69724400D01*
X150309524Y-69772019D01*
X150357143Y-69867257D01*
X150357143Y-70010114D01*
X150309524Y-70105352D01*
X150261905Y-70152971D01*
X150166667Y-70200590D01*
X149785714Y-70200590D01*
X150738095Y-70629162D02*
X150880952Y-70676781D01*
X151119048Y-70676781D01*
X151214286Y-70629162D01*
X151261905Y-70581543D01*
X151309524Y-70486305D01*
X151309524Y-70391067D01*
X151261905Y-70295829D01*
X151214286Y-70248210D01*
X151119048Y-70200590D01*
X150928571Y-70152971D01*
X150833333Y-70105352D01*
X150785714Y-70057733D01*
X150738095Y-69962495D01*
X150738095Y-69867257D01*
X150785714Y-69772019D01*
X150833333Y-69724400D01*
X150928571Y-69676781D01*
X151166667Y-69676781D01*
X151309524Y-69724400D01*
X151690476Y-69772019D02*
X151738095Y-69724400D01*
X151833333Y-69676781D01*
X152071429Y-69676781D01*
X152166667Y-69724400D01*
X152214286Y-69772019D01*
X152261905Y-69867257D01*
X152261905Y-69962495D01*
X152214286Y-70105352D01*
X151642857Y-70676781D01*
X152261905Y-70676781D01*
X115174762Y-72987619D02*
X115079524Y-72940000D01*
X114984286Y-72844762D01*
X114841429Y-72701905D01*
X114746190Y-72654286D01*
X114650952Y-72654286D01*
X114698571Y-72892381D02*
X114603333Y-72844762D01*
X114508095Y-72749524D01*
X114460476Y-72559048D01*
X114460476Y-72225714D01*
X114508095Y-72035238D01*
X114603333Y-71940000D01*
X114698571Y-71892381D01*
X114889048Y-71892381D01*
X114984286Y-71940000D01*
X115079524Y-72035238D01*
X115127143Y-72225714D01*
X115127143Y-72559048D01*
X115079524Y-72749524D01*
X114984286Y-72844762D01*
X114889048Y-72892381D01*
X114698571Y-72892381D01*
X116079524Y-72892381D02*
X115508095Y-72892381D01*
X115793809Y-72892381D02*
X115793809Y-71892381D01*
X115698571Y-72035238D01*
X115603333Y-72130476D01*
X115508095Y-72178095D01*
X101174762Y-71987619D02*
X101079524Y-71940000D01*
X100984286Y-71844762D01*
X100841429Y-71701905D01*
X100746190Y-71654286D01*
X100650952Y-71654286D01*
X100698571Y-71892381D02*
X100603333Y-71844762D01*
X100508095Y-71749524D01*
X100460476Y-71559048D01*
X100460476Y-71225714D01*
X100508095Y-71035238D01*
X100603333Y-70940000D01*
X100698571Y-70892381D01*
X100889048Y-70892381D01*
X100984286Y-70940000D01*
X101079524Y-71035238D01*
X101127143Y-71225714D01*
X101127143Y-71559048D01*
X101079524Y-71749524D01*
X100984286Y-71844762D01*
X100889048Y-71892381D01*
X100698571Y-71892381D01*
X101508095Y-70987619D02*
X101555714Y-70940000D01*
X101650952Y-70892381D01*
X101889048Y-70892381D01*
X101984286Y-70940000D01*
X102031905Y-70987619D01*
X102079524Y-71082857D01*
X102079524Y-71178095D01*
X102031905Y-71320952D01*
X101460476Y-71892381D01*
X102079524Y-71892381D01*
X119663334Y-86392381D02*
X119330000Y-85916190D01*
X119091905Y-86392381D02*
X119091905Y-85392381D01*
X119472858Y-85392381D01*
X119568096Y-85440000D01*
X119615715Y-85487619D01*
X119663334Y-85582857D01*
X119663334Y-85725714D01*
X119615715Y-85820952D01*
X119568096Y-85868571D01*
X119472858Y-85916190D01*
X119091905Y-85916190D01*
X120615715Y-86392381D02*
X120044286Y-86392381D01*
X120330000Y-86392381D02*
X120330000Y-85392381D01*
X120234762Y-85535238D01*
X120139524Y-85630476D01*
X120044286Y-85678095D01*
X140013334Y-71672381D02*
X139680000Y-71196190D01*
X139441905Y-71672381D02*
X139441905Y-70672381D01*
X139822858Y-70672381D01*
X139918096Y-70720000D01*
X139965715Y-70767619D01*
X140013334Y-70862857D01*
X140013334Y-71005714D01*
X139965715Y-71100952D01*
X139918096Y-71148571D01*
X139822858Y-71196190D01*
X139441905Y-71196190D01*
X140394286Y-70767619D02*
X140441905Y-70720000D01*
X140537143Y-70672381D01*
X140775239Y-70672381D01*
X140870477Y-70720000D01*
X140918096Y-70767619D01*
X140965715Y-70862857D01*
X140965715Y-70958095D01*
X140918096Y-71100952D01*
X140346667Y-71672381D01*
X140965715Y-71672381D01*
X169752381Y-146416666D02*
X169276190Y-146750000D01*
X169752381Y-146988095D02*
X168752381Y-146988095D01*
X168752381Y-146607142D01*
X168800000Y-146511904D01*
X168847619Y-146464285D01*
X168942857Y-146416666D01*
X169085714Y-146416666D01*
X169180952Y-146464285D01*
X169228571Y-146511904D01*
X169276190Y-146607142D01*
X169276190Y-146988095D01*
X169085714Y-145559523D02*
X169752381Y-145559523D01*
X168704762Y-145797619D02*
X169419048Y-146035714D01*
X169419048Y-145416666D01*
X105913334Y-77142381D02*
X105580000Y-76666190D01*
X105341905Y-77142381D02*
X105341905Y-76142381D01*
X105722858Y-76142381D01*
X105818096Y-76190000D01*
X105865715Y-76237619D01*
X105913334Y-76332857D01*
X105913334Y-76475714D01*
X105865715Y-76570952D01*
X105818096Y-76618571D01*
X105722858Y-76666190D01*
X105341905Y-76666190D01*
X106818096Y-76142381D02*
X106341905Y-76142381D01*
X106294286Y-76618571D01*
X106341905Y-76570952D01*
X106437143Y-76523333D01*
X106675239Y-76523333D01*
X106770477Y-76570952D01*
X106818096Y-76618571D01*
X106865715Y-76713810D01*
X106865715Y-76951905D01*
X106818096Y-77047143D01*
X106770477Y-77094762D01*
X106675239Y-77142381D01*
X106437143Y-77142381D01*
X106341905Y-77094762D01*
X106294286Y-77047143D01*
X95663334Y-136142381D02*
X95330000Y-135666190D01*
X95091905Y-136142381D02*
X95091905Y-135142381D01*
X95472858Y-135142381D01*
X95568096Y-135190000D01*
X95615715Y-135237619D01*
X95663334Y-135332857D01*
X95663334Y-135475714D01*
X95615715Y-135570952D01*
X95568096Y-135618571D01*
X95472858Y-135666190D01*
X95091905Y-135666190D01*
X95996667Y-135142381D02*
X96663334Y-135142381D01*
X96234762Y-136142381D01*
X108913334Y-136142381D02*
X108580000Y-135666190D01*
X108341905Y-136142381D02*
X108341905Y-135142381D01*
X108722858Y-135142381D01*
X108818096Y-135190000D01*
X108865715Y-135237619D01*
X108913334Y-135332857D01*
X108913334Y-135475714D01*
X108865715Y-135570952D01*
X108818096Y-135618571D01*
X108722858Y-135666190D01*
X108341905Y-135666190D01*
X109484762Y-135570952D02*
X109389524Y-135523333D01*
X109341905Y-135475714D01*
X109294286Y-135380476D01*
X109294286Y-135332857D01*
X109341905Y-135237619D01*
X109389524Y-135190000D01*
X109484762Y-135142381D01*
X109675239Y-135142381D01*
X109770477Y-135190000D01*
X109818096Y-135237619D01*
X109865715Y-135332857D01*
X109865715Y-135380476D01*
X109818096Y-135475714D01*
X109770477Y-135523333D01*
X109675239Y-135570952D01*
X109484762Y-135570952D01*
X109389524Y-135618571D01*
X109341905Y-135666190D01*
X109294286Y-135761429D01*
X109294286Y-135951905D01*
X109341905Y-136047143D01*
X109389524Y-136094762D01*
X109484762Y-136142381D01*
X109675239Y-136142381D01*
X109770477Y-136094762D01*
X109818096Y-136047143D01*
X109865715Y-135951905D01*
X109865715Y-135761429D01*
X109818096Y-135666190D01*
X109770477Y-135618571D01*
X109675239Y-135570952D01*
X121913334Y-136142381D02*
X121580000Y-135666190D01*
X121341905Y-136142381D02*
X121341905Y-135142381D01*
X121722858Y-135142381D01*
X121818096Y-135190000D01*
X121865715Y-135237619D01*
X121913334Y-135332857D01*
X121913334Y-135475714D01*
X121865715Y-135570952D01*
X121818096Y-135618571D01*
X121722858Y-135666190D01*
X121341905Y-135666190D01*
X122389524Y-136142381D02*
X122580000Y-136142381D01*
X122675239Y-136094762D01*
X122722858Y-136047143D01*
X122818096Y-135904286D01*
X122865715Y-135713810D01*
X122865715Y-135332857D01*
X122818096Y-135237619D01*
X122770477Y-135190000D01*
X122675239Y-135142381D01*
X122484762Y-135142381D01*
X122389524Y-135190000D01*
X122341905Y-135237619D01*
X122294286Y-135332857D01*
X122294286Y-135570952D01*
X122341905Y-135666190D01*
X122389524Y-135713810D01*
X122484762Y-135761429D01*
X122675239Y-135761429D01*
X122770477Y-135713810D01*
X122818096Y-135666190D01*
X122865715Y-135570952D01*
X134437143Y-136142381D02*
X134103809Y-135666190D01*
X133865714Y-136142381D02*
X133865714Y-135142381D01*
X134246667Y-135142381D01*
X134341905Y-135190000D01*
X134389524Y-135237619D01*
X134437143Y-135332857D01*
X134437143Y-135475714D01*
X134389524Y-135570952D01*
X134341905Y-135618571D01*
X134246667Y-135666190D01*
X133865714Y-135666190D01*
X135389524Y-136142381D02*
X134818095Y-136142381D01*
X135103809Y-136142381D02*
X135103809Y-135142381D01*
X135008571Y-135285238D01*
X134913333Y-135380476D01*
X134818095Y-135428095D01*
X136008571Y-135142381D02*
X136103810Y-135142381D01*
X136199048Y-135190000D01*
X136246667Y-135237619D01*
X136294286Y-135332857D01*
X136341905Y-135523333D01*
X136341905Y-135761429D01*
X136294286Y-135951905D01*
X136246667Y-136047143D01*
X136199048Y-136094762D01*
X136103810Y-136142381D01*
X136008571Y-136142381D01*
X135913333Y-136094762D01*
X135865714Y-136047143D01*
X135818095Y-135951905D01*
X135770476Y-135761429D01*
X135770476Y-135523333D01*
X135818095Y-135332857D01*
X135865714Y-135237619D01*
X135913333Y-135190000D01*
X136008571Y-135142381D01*
X147437143Y-136142381D02*
X147103809Y-135666190D01*
X146865714Y-136142381D02*
X146865714Y-135142381D01*
X147246667Y-135142381D01*
X147341905Y-135190000D01*
X147389524Y-135237619D01*
X147437143Y-135332857D01*
X147437143Y-135475714D01*
X147389524Y-135570952D01*
X147341905Y-135618571D01*
X147246667Y-135666190D01*
X146865714Y-135666190D01*
X148389524Y-136142381D02*
X147818095Y-136142381D01*
X148103809Y-136142381D02*
X148103809Y-135142381D01*
X148008571Y-135285238D01*
X147913333Y-135380476D01*
X147818095Y-135428095D01*
X149341905Y-136142381D02*
X148770476Y-136142381D01*
X149056190Y-136142381D02*
X149056190Y-135142381D01*
X148960952Y-135285238D01*
X148865714Y-135380476D01*
X148770476Y-135428095D01*
X160437143Y-136142381D02*
X160103809Y-135666190D01*
X159865714Y-136142381D02*
X159865714Y-135142381D01*
X160246667Y-135142381D01*
X160341905Y-135190000D01*
X160389524Y-135237619D01*
X160437143Y-135332857D01*
X160437143Y-135475714D01*
X160389524Y-135570952D01*
X160341905Y-135618571D01*
X160246667Y-135666190D01*
X159865714Y-135666190D01*
X161389524Y-136142381D02*
X160818095Y-136142381D01*
X161103809Y-136142381D02*
X161103809Y-135142381D01*
X161008571Y-135285238D01*
X160913333Y-135380476D01*
X160818095Y-135428095D01*
X161770476Y-135237619D02*
X161818095Y-135190000D01*
X161913333Y-135142381D01*
X162151429Y-135142381D01*
X162246667Y-135190000D01*
X162294286Y-135237619D01*
X162341905Y-135332857D01*
X162341905Y-135428095D01*
X162294286Y-135570952D01*
X161722857Y-136142381D01*
X162341905Y-136142381D01*
X129437143Y-89892381D02*
X129103809Y-89416190D01*
X128865714Y-89892381D02*
X128865714Y-88892381D01*
X129246667Y-88892381D01*
X129341905Y-88940000D01*
X129389524Y-88987619D01*
X129437143Y-89082857D01*
X129437143Y-89225714D01*
X129389524Y-89320952D01*
X129341905Y-89368571D01*
X129246667Y-89416190D01*
X128865714Y-89416190D01*
X130389524Y-89892381D02*
X129818095Y-89892381D01*
X130103809Y-89892381D02*
X130103809Y-88892381D01*
X130008571Y-89035238D01*
X129913333Y-89130476D01*
X129818095Y-89178095D01*
X130722857Y-88892381D02*
X131341905Y-88892381D01*
X131008571Y-89273333D01*
X131151429Y-89273333D01*
X131246667Y-89320952D01*
X131294286Y-89368571D01*
X131341905Y-89463810D01*
X131341905Y-89701905D01*
X131294286Y-89797143D01*
X131246667Y-89844762D01*
X131151429Y-89892381D01*
X130865714Y-89892381D01*
X130770476Y-89844762D01*
X130722857Y-89797143D01*
X144027143Y-82762381D02*
X143693809Y-82286190D01*
X143455714Y-82762381D02*
X143455714Y-81762381D01*
X143836667Y-81762381D01*
X143931905Y-81810000D01*
X143979524Y-81857619D01*
X144027143Y-81952857D01*
X144027143Y-82095714D01*
X143979524Y-82190952D01*
X143931905Y-82238571D01*
X143836667Y-82286190D01*
X143455714Y-82286190D01*
X144979524Y-82762381D02*
X144408095Y-82762381D01*
X144693809Y-82762381D02*
X144693809Y-81762381D01*
X144598571Y-81905238D01*
X144503333Y-82000476D01*
X144408095Y-82048095D01*
X145836667Y-82095714D02*
X145836667Y-82762381D01*
X145598571Y-81714762D02*
X145360476Y-82429048D01*
X145979524Y-82429048D01*
X94916667Y-148904762D02*
X95059524Y-148952381D01*
X95297620Y-148952381D01*
X95392858Y-148904762D01*
X95440477Y-148857143D01*
X95488096Y-148761905D01*
X95488096Y-148666667D01*
X95440477Y-148571429D01*
X95392858Y-148523810D01*
X95297620Y-148476190D01*
X95107143Y-148428571D01*
X95011905Y-148380952D01*
X94964286Y-148333333D01*
X94916667Y-148238095D01*
X94916667Y-148142857D01*
X94964286Y-148047619D01*
X95011905Y-148000000D01*
X95107143Y-147952381D01*
X95345239Y-147952381D01*
X95488096Y-148000000D01*
X95821429Y-147952381D02*
X96059524Y-148952381D01*
X96250001Y-148238095D01*
X96440477Y-148952381D01*
X96678572Y-147952381D01*
X97583334Y-148952381D02*
X97011905Y-148952381D01*
X97297619Y-148952381D02*
X97297619Y-147952381D01*
X97202381Y-148095238D01*
X97107143Y-148190476D01*
X97011905Y-148238095D01*
X104916667Y-148904762D02*
X105059524Y-148952381D01*
X105297620Y-148952381D01*
X105392858Y-148904762D01*
X105440477Y-148857143D01*
X105488096Y-148761905D01*
X105488096Y-148666667D01*
X105440477Y-148571429D01*
X105392858Y-148523810D01*
X105297620Y-148476190D01*
X105107143Y-148428571D01*
X105011905Y-148380952D01*
X104964286Y-148333333D01*
X104916667Y-148238095D01*
X104916667Y-148142857D01*
X104964286Y-148047619D01*
X105011905Y-148000000D01*
X105107143Y-147952381D01*
X105345239Y-147952381D01*
X105488096Y-148000000D01*
X105821429Y-147952381D02*
X106059524Y-148952381D01*
X106250001Y-148238095D01*
X106440477Y-148952381D01*
X106678572Y-147952381D01*
X107011905Y-148047619D02*
X107059524Y-148000000D01*
X107154762Y-147952381D01*
X107392858Y-147952381D01*
X107488096Y-148000000D01*
X107535715Y-148047619D01*
X107583334Y-148142857D01*
X107583334Y-148238095D01*
X107535715Y-148380952D01*
X106964286Y-148952381D01*
X107583334Y-148952381D01*
X114916667Y-148904762D02*
X115059524Y-148952381D01*
X115297620Y-148952381D01*
X115392858Y-148904762D01*
X115440477Y-148857143D01*
X115488096Y-148761905D01*
X115488096Y-148666667D01*
X115440477Y-148571429D01*
X115392858Y-148523810D01*
X115297620Y-148476190D01*
X115107143Y-148428571D01*
X115011905Y-148380952D01*
X114964286Y-148333333D01*
X114916667Y-148238095D01*
X114916667Y-148142857D01*
X114964286Y-148047619D01*
X115011905Y-148000000D01*
X115107143Y-147952381D01*
X115345239Y-147952381D01*
X115488096Y-148000000D01*
X115821429Y-147952381D02*
X116059524Y-148952381D01*
X116250001Y-148238095D01*
X116440477Y-148952381D01*
X116678572Y-147952381D01*
X116964286Y-147952381D02*
X117583334Y-147952381D01*
X117250000Y-148333333D01*
X117392858Y-148333333D01*
X117488096Y-148380952D01*
X117535715Y-148428571D01*
X117583334Y-148523810D01*
X117583334Y-148761905D01*
X117535715Y-148857143D01*
X117488096Y-148904762D01*
X117392858Y-148952381D01*
X117107143Y-148952381D01*
X117011905Y-148904762D01*
X116964286Y-148857143D01*
X125166667Y-148904762D02*
X125309524Y-148952381D01*
X125547620Y-148952381D01*
X125642858Y-148904762D01*
X125690477Y-148857143D01*
X125738096Y-148761905D01*
X125738096Y-148666667D01*
X125690477Y-148571429D01*
X125642858Y-148523810D01*
X125547620Y-148476190D01*
X125357143Y-148428571D01*
X125261905Y-148380952D01*
X125214286Y-148333333D01*
X125166667Y-148238095D01*
X125166667Y-148142857D01*
X125214286Y-148047619D01*
X125261905Y-148000000D01*
X125357143Y-147952381D01*
X125595239Y-147952381D01*
X125738096Y-148000000D01*
X126071429Y-147952381D02*
X126309524Y-148952381D01*
X126500001Y-148238095D01*
X126690477Y-148952381D01*
X126928572Y-147952381D01*
X127738096Y-148285714D02*
X127738096Y-148952381D01*
X127500000Y-147904762D02*
X127261905Y-148619048D01*
X127880953Y-148619048D01*
X135416667Y-148904762D02*
X135559524Y-148952381D01*
X135797620Y-148952381D01*
X135892858Y-148904762D01*
X135940477Y-148857143D01*
X135988096Y-148761905D01*
X135988096Y-148666667D01*
X135940477Y-148571429D01*
X135892858Y-148523810D01*
X135797620Y-148476190D01*
X135607143Y-148428571D01*
X135511905Y-148380952D01*
X135464286Y-148333333D01*
X135416667Y-148238095D01*
X135416667Y-148142857D01*
X135464286Y-148047619D01*
X135511905Y-148000000D01*
X135607143Y-147952381D01*
X135845239Y-147952381D01*
X135988096Y-148000000D01*
X136321429Y-147952381D02*
X136559524Y-148952381D01*
X136750001Y-148238095D01*
X136940477Y-148952381D01*
X137178572Y-147952381D01*
X138035715Y-147952381D02*
X137559524Y-147952381D01*
X137511905Y-148428571D01*
X137559524Y-148380952D01*
X137654762Y-148333333D01*
X137892858Y-148333333D01*
X137988096Y-148380952D01*
X138035715Y-148428571D01*
X138083334Y-148523810D01*
X138083334Y-148761905D01*
X138035715Y-148857143D01*
X137988096Y-148904762D01*
X137892858Y-148952381D01*
X137654762Y-148952381D01*
X137559524Y-148904762D01*
X137511905Y-148857143D01*
X145916667Y-148904762D02*
X146059524Y-148952381D01*
X146297620Y-148952381D01*
X146392858Y-148904762D01*
X146440477Y-148857143D01*
X146488096Y-148761905D01*
X146488096Y-148666667D01*
X146440477Y-148571429D01*
X146392858Y-148523810D01*
X146297620Y-148476190D01*
X146107143Y-148428571D01*
X146011905Y-148380952D01*
X145964286Y-148333333D01*
X145916667Y-148238095D01*
X145916667Y-148142857D01*
X145964286Y-148047619D01*
X146011905Y-148000000D01*
X146107143Y-147952381D01*
X146345239Y-147952381D01*
X146488096Y-148000000D01*
X146821429Y-147952381D02*
X147059524Y-148952381D01*
X147250001Y-148238095D01*
X147440477Y-148952381D01*
X147678572Y-147952381D01*
X148488096Y-147952381D02*
X148297619Y-147952381D01*
X148202381Y-148000000D01*
X148154762Y-148047619D01*
X148059524Y-148190476D01*
X148011905Y-148380952D01*
X148011905Y-148761905D01*
X148059524Y-148857143D01*
X148107143Y-148904762D01*
X148202381Y-148952381D01*
X148392858Y-148952381D01*
X148488096Y-148904762D01*
X148535715Y-148857143D01*
X148583334Y-148761905D01*
X148583334Y-148523810D01*
X148535715Y-148428571D01*
X148488096Y-148380952D01*
X148392858Y-148333333D01*
X148202381Y-148333333D01*
X148107143Y-148380952D01*
X148059524Y-148428571D01*
X148011905Y-148523810D01*
X81778095Y-80846381D02*
X81778095Y-81655905D01*
X81825714Y-81751143D01*
X81873333Y-81798762D01*
X81968571Y-81846381D01*
X82159048Y-81846381D01*
X82254286Y-81798762D01*
X82301905Y-81751143D01*
X82349524Y-81655905D01*
X82349524Y-80846381D01*
X83349524Y-81846381D02*
X82778095Y-81846381D01*
X83063809Y-81846381D02*
X83063809Y-80846381D01*
X82968571Y-80989238D01*
X82873333Y-81084476D01*
X82778095Y-81132095D01*
X142484000Y-104103143D02*
X142531619Y-104150762D01*
X142484000Y-104198381D01*
X142436381Y-104150762D01*
X142484000Y-104103143D01*
X142484000Y-104198381D01*
X159702381Y-66109524D02*
X158702381Y-66109524D01*
X158702381Y-65728571D01*
X158750000Y-65633333D01*
X158797619Y-65585714D01*
X158892857Y-65538095D01*
X159035714Y-65538095D01*
X159130952Y-65585714D01*
X159178571Y-65633333D01*
X159226190Y-65728571D01*
X159226190Y-66109524D01*
X158702381Y-65204762D02*
X159702381Y-64966667D01*
X158988095Y-64776190D01*
X159702381Y-64585714D01*
X158702381Y-64347619D01*
X159702381Y-63395238D02*
X159226190Y-63728572D01*
X159702381Y-63966667D02*
X158702381Y-63966667D01*
X158702381Y-63585714D01*
X158750000Y-63490476D01*
X158797619Y-63442857D01*
X158892857Y-63395238D01*
X159035714Y-63395238D01*
X159130952Y-63442857D01*
X159178571Y-63490476D01*
X159226190Y-63585714D01*
X159226190Y-63966667D01*
X159702381Y-62442857D02*
X159702381Y-63014286D01*
X159702381Y-62728572D02*
X158702381Y-62728572D01*
X158845238Y-62823810D01*
X158940476Y-62919048D01*
X158988095Y-63014286D01*
X128057143Y-77826666D02*
X128104762Y-77874285D01*
X128152381Y-78017142D01*
X128152381Y-78112380D01*
X128104762Y-78255238D01*
X128009524Y-78350476D01*
X127914286Y-78398095D01*
X127723810Y-78445714D01*
X127580952Y-78445714D01*
X127390476Y-78398095D01*
X127295238Y-78350476D01*
X127200000Y-78255238D01*
X127152381Y-78112380D01*
X127152381Y-78017142D01*
X127200000Y-77874285D01*
X127247619Y-77826666D01*
X128152381Y-76874285D02*
X128152381Y-77445714D01*
X128152381Y-77160000D02*
X127152381Y-77160000D01*
X127295238Y-77255238D01*
X127390476Y-77350476D01*
X127438095Y-77445714D01*
X141477143Y-90956666D02*
X141524762Y-91004285D01*
X141572381Y-91147142D01*
X141572381Y-91242380D01*
X141524762Y-91385238D01*
X141429524Y-91480476D01*
X141334286Y-91528095D01*
X141143810Y-91575714D01*
X141000952Y-91575714D01*
X140810476Y-91528095D01*
X140715238Y-91480476D01*
X140620000Y-91385238D01*
X140572381Y-91242380D01*
X140572381Y-91147142D01*
X140620000Y-91004285D01*
X140667619Y-90956666D01*
X140667619Y-90575714D02*
X140620000Y-90528095D01*
X140572381Y-90432857D01*
X140572381Y-90194761D01*
X140620000Y-90099523D01*
X140667619Y-90051904D01*
X140762857Y-90004285D01*
X140858095Y-90004285D01*
X141000952Y-90051904D01*
X141572381Y-90623333D01*
X141572381Y-90004285D01*
X107893334Y-73517143D02*
X107845715Y-73564762D01*
X107702858Y-73612381D01*
X107607620Y-73612381D01*
X107464762Y-73564762D01*
X107369524Y-73469524D01*
X107321905Y-73374286D01*
X107274286Y-73183810D01*
X107274286Y-73040952D01*
X107321905Y-72850476D01*
X107369524Y-72755238D01*
X107464762Y-72660000D01*
X107607620Y-72612381D01*
X107702858Y-72612381D01*
X107845715Y-72660000D01*
X107893334Y-72707619D01*
X108226667Y-72612381D02*
X108845715Y-72612381D01*
X108512381Y-72993333D01*
X108655239Y-72993333D01*
X108750477Y-73040952D01*
X108798096Y-73088571D01*
X108845715Y-73183810D01*
X108845715Y-73421905D01*
X108798096Y-73517143D01*
X108750477Y-73564762D01*
X108655239Y-73612381D01*
X108369524Y-73612381D01*
X108274286Y-73564762D01*
X108226667Y-73517143D01*
X133797143Y-78666666D02*
X133844762Y-78714285D01*
X133892381Y-78857142D01*
X133892381Y-78952380D01*
X133844762Y-79095238D01*
X133749524Y-79190476D01*
X133654286Y-79238095D01*
X133463810Y-79285714D01*
X133320952Y-79285714D01*
X133130476Y-79238095D01*
X133035238Y-79190476D01*
X132940000Y-79095238D01*
X132892381Y-78952380D01*
X132892381Y-78857142D01*
X132940000Y-78714285D01*
X132987619Y-78666666D01*
X133225714Y-77809523D02*
X133892381Y-77809523D01*
X132844762Y-78047619D02*
X133559048Y-78285714D01*
X133559048Y-77666666D01*
X112662381Y-91632857D02*
X112186190Y-91966191D01*
X112662381Y-92204286D02*
X111662381Y-92204286D01*
X111662381Y-91823333D01*
X111710000Y-91728095D01*
X111757619Y-91680476D01*
X111852857Y-91632857D01*
X111995714Y-91632857D01*
X112090952Y-91680476D01*
X112138571Y-91728095D01*
X112186190Y-91823333D01*
X112186190Y-92204286D01*
X112662381Y-90680476D02*
X112662381Y-91251905D01*
X112662381Y-90966191D02*
X111662381Y-90966191D01*
X111805238Y-91061429D01*
X111900476Y-91156667D01*
X111948095Y-91251905D01*
X111662381Y-89775714D02*
X111662381Y-90251905D01*
X112138571Y-90299524D01*
X112090952Y-90251905D01*
X112043333Y-90156667D01*
X112043333Y-89918571D01*
X112090952Y-89823333D01*
X112138571Y-89775714D01*
X112233810Y-89728095D01*
X112471905Y-89728095D01*
X112567143Y-89775714D01*
X112614762Y-89823333D01*
X112662381Y-89918571D01*
X112662381Y-90156667D01*
X112614762Y-90251905D01*
X112567143Y-90299524D01*
X170544762Y-77163333D02*
X170592381Y-77020476D01*
X170592381Y-76782380D01*
X170544762Y-76687142D01*
X170497143Y-76639523D01*
X170401905Y-76591904D01*
X170306667Y-76591904D01*
X170211429Y-76639523D01*
X170163810Y-76687142D01*
X170116190Y-76782380D01*
X170068571Y-76972857D01*
X170020952Y-77068095D01*
X169973333Y-77115714D01*
X169878095Y-77163333D01*
X169782857Y-77163333D01*
X169687619Y-77115714D01*
X169640000Y-77068095D01*
X169592381Y-76972857D01*
X169592381Y-76734761D01*
X169640000Y-76591904D01*
X169592381Y-76258571D02*
X170592381Y-76020476D01*
X169878095Y-75829999D01*
X170592381Y-75639523D01*
X169592381Y-75401428D01*
X169592381Y-74830000D02*
X169592381Y-74734761D01*
X169640000Y-74639523D01*
X169687619Y-74591904D01*
X169782857Y-74544285D01*
X169973333Y-74496666D01*
X170211429Y-74496666D01*
X170401905Y-74544285D01*
X170497143Y-74591904D01*
X170544762Y-74639523D01*
X170592381Y-74734761D01*
X170592381Y-74830000D01*
X170544762Y-74925238D01*
X170497143Y-74972857D01*
X170401905Y-75020476D01*
X170211429Y-75068095D01*
X169973333Y-75068095D01*
X169782857Y-75020476D01*
X169687619Y-74972857D01*
X169640000Y-74925238D01*
X169592381Y-74830000D01*
X168531905Y-87492381D02*
X168531905Y-86492381D01*
X168770000Y-86492381D01*
X168912858Y-86540000D01*
X169008096Y-86635238D01*
X169055715Y-86730476D01*
X169103334Y-86920952D01*
X169103334Y-87063810D01*
X169055715Y-87254286D01*
X169008096Y-87349524D01*
X168912858Y-87444762D01*
X168770000Y-87492381D01*
X168531905Y-87492381D01*
X170055715Y-87492381D02*
X169484286Y-87492381D01*
X169770000Y-87492381D02*
X169770000Y-86492381D01*
X169674762Y-86635238D01*
X169579524Y-86730476D01*
X169484286Y-86778095D01*
X161187143Y-90392381D02*
X160853809Y-89916190D01*
X160615714Y-90392381D02*
X160615714Y-89392381D01*
X160996667Y-89392381D01*
X161091905Y-89440000D01*
X161139524Y-89487619D01*
X161187143Y-89582857D01*
X161187143Y-89725714D01*
X161139524Y-89820952D01*
X161091905Y-89868571D01*
X160996667Y-89916190D01*
X160615714Y-89916190D01*
X162139524Y-90392381D02*
X161568095Y-90392381D01*
X161853809Y-90392381D02*
X161853809Y-89392381D01*
X161758571Y-89535238D01*
X161663333Y-89630476D01*
X161568095Y-89678095D01*
X162472857Y-89392381D02*
X163139524Y-89392381D01*
X162710952Y-90392381D01*
X92465714Y-93392381D02*
X92465714Y-92392381D01*
X92703809Y-92392381D01*
X92846667Y-92440000D01*
X92941905Y-92535238D01*
X92989524Y-92630476D01*
X93037143Y-92820952D01*
X93037143Y-92963810D01*
X92989524Y-93154286D01*
X92941905Y-93249524D01*
X92846667Y-93344762D01*
X92703809Y-93392381D01*
X92465714Y-93392381D01*
X93418095Y-93344762D02*
X93560952Y-93392381D01*
X93799048Y-93392381D01*
X93894286Y-93344762D01*
X93941905Y-93297143D01*
X93989524Y-93201905D01*
X93989524Y-93106667D01*
X93941905Y-93011429D01*
X93894286Y-92963810D01*
X93799048Y-92916190D01*
X93608571Y-92868571D01*
X93513333Y-92820952D01*
X93465714Y-92773333D01*
X93418095Y-92678095D01*
X93418095Y-92582857D01*
X93465714Y-92487619D01*
X93513333Y-92440000D01*
X93608571Y-92392381D01*
X93846667Y-92392381D01*
X93989524Y-92440000D01*
X94941905Y-93392381D02*
X94370476Y-93392381D01*
X94656190Y-93392381D02*
X94656190Y-92392381D01*
X94560952Y-92535238D01*
X94465714Y-92630476D01*
X94370476Y-92678095D01*
X118665334Y-72423905D02*
X118665334Y-72995333D01*
X118627238Y-73109619D01*
X118551048Y-73185810D01*
X118436762Y-73223905D01*
X118360572Y-73223905D01*
X118970096Y-72423905D02*
X119465334Y-72423905D01*
X119198667Y-72728667D01*
X119312953Y-72728667D01*
X119389143Y-72766762D01*
X119427239Y-72804857D01*
X119465334Y-72881048D01*
X119465334Y-73071524D01*
X119427239Y-73147714D01*
X119389143Y-73185810D01*
X119312953Y-73223905D01*
X119084381Y-73223905D01*
X119008191Y-73185810D01*
X118970096Y-73147714D01*
D10*
X121164287Y-66358000D02*
X121450001Y-66358000D01*
X121107144Y-66529429D02*
X121307144Y-65929429D01*
X121507144Y-66529429D01*
X121964287Y-66129429D02*
X121964287Y-66529429D01*
X121707144Y-66129429D02*
X121707144Y-66443714D01*
X121735716Y-66500857D01*
X121792858Y-66529429D01*
X121878573Y-66529429D01*
X121935716Y-66500857D01*
X121964287Y-66472286D01*
X122507144Y-66529429D02*
X122507144Y-65929429D01*
X122507144Y-66500857D02*
X122450001Y-66529429D01*
X122335715Y-66529429D01*
X122278573Y-66500857D01*
X122250001Y-66472286D01*
X122221430Y-66415143D01*
X122221430Y-66243714D01*
X122250001Y-66186571D01*
X122278573Y-66158000D01*
X122335715Y-66129429D01*
X122450001Y-66129429D01*
X122507144Y-66158000D01*
X122792858Y-66529429D02*
X122792858Y-66129429D01*
X122792858Y-65929429D02*
X122764287Y-65958000D01*
X122792858Y-65986571D01*
X122821430Y-65958000D01*
X122792858Y-65929429D01*
X122792858Y-65986571D01*
X123164286Y-66529429D02*
X123107144Y-66500857D01*
X123078572Y-66472286D01*
X123050001Y-66415143D01*
X123050001Y-66243714D01*
X123078572Y-66186571D01*
X123107144Y-66158000D01*
X123164286Y-66129429D01*
X123250001Y-66129429D01*
X123307144Y-66158000D01*
X123335715Y-66186571D01*
X123364286Y-66243714D01*
X123364286Y-66415143D01*
X123335715Y-66472286D01*
X123307144Y-66500857D01*
X123250001Y-66529429D01*
X123164286Y-66529429D01*
X124192858Y-65929429D02*
X124307144Y-65929429D01*
X124364286Y-65958000D01*
X124421429Y-66015143D01*
X124450001Y-66129429D01*
X124450001Y-66329429D01*
X124421429Y-66443714D01*
X124364286Y-66500857D01*
X124307144Y-66529429D01*
X124192858Y-66529429D01*
X124135715Y-66500857D01*
X124078572Y-66443714D01*
X124050001Y-66329429D01*
X124050001Y-66129429D01*
X124078572Y-66015143D01*
X124135715Y-65958000D01*
X124192858Y-65929429D01*
X124964286Y-66129429D02*
X124964286Y-66529429D01*
X124707143Y-66129429D02*
X124707143Y-66443714D01*
X124735715Y-66500857D01*
X124792857Y-66529429D01*
X124878572Y-66529429D01*
X124935715Y-66500857D01*
X124964286Y-66472286D01*
X125164286Y-66129429D02*
X125392857Y-66129429D01*
X125250000Y-65929429D02*
X125250000Y-66443714D01*
X125278572Y-66500857D01*
X125335714Y-66529429D01*
X125392857Y-66529429D01*
D12*
X92165334Y-72423905D02*
X92165334Y-72995333D01*
X92127238Y-73109619D01*
X92051048Y-73185810D01*
X91936762Y-73223905D01*
X91860572Y-73223905D01*
X92965334Y-73223905D02*
X92508191Y-73223905D01*
X92736762Y-73223905D02*
X92736762Y-72423905D01*
X92660572Y-72538190D01*
X92584381Y-72614381D01*
X92508191Y-72652476D01*
D10*
X95992857Y-65929429D02*
X96335714Y-65929429D01*
X96164285Y-66529429D02*
X96164285Y-65929429D01*
X96878571Y-66529429D02*
X96678571Y-66243714D01*
X96535714Y-66529429D02*
X96535714Y-65929429D01*
X96764286Y-65929429D01*
X96821428Y-65958000D01*
X96850000Y-65986571D01*
X96878571Y-66043714D01*
X96878571Y-66129429D01*
X96850000Y-66186571D01*
X96821428Y-66215143D01*
X96764286Y-66243714D01*
X96535714Y-66243714D01*
X97078571Y-65929429D02*
X97478571Y-66529429D01*
X97478571Y-65929429D02*
X97078571Y-66529429D01*
D12*
X105415334Y-72423905D02*
X105415334Y-72995333D01*
X105377238Y-73109619D01*
X105301048Y-73185810D01*
X105186762Y-73223905D01*
X105110572Y-73223905D01*
X105758191Y-72500095D02*
X105796286Y-72462000D01*
X105872477Y-72423905D01*
X106062953Y-72423905D01*
X106139143Y-72462000D01*
X106177239Y-72500095D01*
X106215334Y-72576286D01*
X106215334Y-72652476D01*
X106177239Y-72766762D01*
X105720096Y-73223905D01*
X106215334Y-73223905D01*
D10*
X109314286Y-66529429D02*
X109314286Y-65929429D01*
X109657143Y-66529429D02*
X109400000Y-66186571D01*
X109657143Y-65929429D02*
X109314286Y-66272286D01*
X109914286Y-66215143D02*
X110114286Y-66215143D01*
X110200000Y-66529429D02*
X109914286Y-66529429D01*
X109914286Y-65929429D01*
X110200000Y-65929429D01*
X110571429Y-66243714D02*
X110571429Y-66529429D01*
X110371429Y-65929429D02*
X110571429Y-66243714D01*
X110771429Y-65929429D01*
D12*
X131915334Y-72423905D02*
X131915334Y-72995333D01*
X131877238Y-73109619D01*
X131801048Y-73185810D01*
X131686762Y-73223905D01*
X131610572Y-73223905D01*
X132639143Y-72690571D02*
X132639143Y-73223905D01*
X132448667Y-72385810D02*
X132258191Y-72957238D01*
X132753429Y-72957238D01*
D10*
X134600001Y-66358000D02*
X134885715Y-66358000D01*
X134542858Y-66529429D02*
X134742858Y-65929429D01*
X134942858Y-66529429D01*
X135142858Y-65929429D02*
X135142858Y-66415143D01*
X135171430Y-66472286D01*
X135200001Y-66500857D01*
X135257144Y-66529429D01*
X135371430Y-66529429D01*
X135428572Y-66500857D01*
X135457144Y-66472286D01*
X135485715Y-66415143D01*
X135485715Y-65929429D01*
X135771429Y-66529429D02*
X135771429Y-65929429D01*
X135914286Y-65929429D01*
X136000001Y-65958000D01*
X136057143Y-66015143D01*
X136085715Y-66072286D01*
X136114286Y-66186571D01*
X136114286Y-66272286D01*
X136085715Y-66386571D01*
X136057143Y-66443714D01*
X136000001Y-66500857D01*
X135914286Y-66529429D01*
X135771429Y-66529429D01*
X136371429Y-66529429D02*
X136371429Y-65929429D01*
X136771429Y-65929429D02*
X136885715Y-65929429D01*
X136942857Y-65958000D01*
X137000000Y-66015143D01*
X137028572Y-66129429D01*
X137028572Y-66329429D01*
X137000000Y-66443714D01*
X136942857Y-66500857D01*
X136885715Y-66529429D01*
X136771429Y-66529429D01*
X136714286Y-66500857D01*
X136657143Y-66443714D01*
X136628572Y-66329429D01*
X136628572Y-66129429D01*
X136657143Y-66015143D01*
X136714286Y-65958000D01*
X136771429Y-65929429D01*
X137742857Y-66529429D02*
X137742857Y-65929429D01*
X138028571Y-66529429D02*
X138028571Y-65929429D01*
X138371428Y-66529429D01*
X138371428Y-65929429D01*
M02*
