G04 #@! TF.FileFunction,Soldermask,Bot*
%FSLAX46Y46*%
G04 Gerber Fmt 4.6, Leading zero omitted, Abs format (unit mm)*
G04 Created by KiCad (PCBNEW 4.0.7-e2-6376~61~ubuntu18.04.1) date Wed Jul 25 19:22:43 2018*
%MOMM*%
%LPD*%
G01*
G04 APERTURE LIST*
%ADD10C,0.100000*%
%ADD11R,2.000000X2.000000*%
%ADD12C,2.000000*%
%ADD13R,1.600000X1.600000*%
%ADD14C,1.600000*%
%ADD15C,1.524000*%
%ADD16R,1.200000X2.800000*%
%ADD17R,2.800000X1.200000*%
%ADD18C,1.000000*%
%ADD19R,1.000000X1.000000*%
%ADD20O,1.600000X1.600000*%
%ADD21C,1.800000*%
%ADD22C,4.600000*%
%ADD23O,1.727200X1.727200*%
%ADD24C,3.200000*%
%ADD25R,3.500000X3.500000*%
%ADD26C,1.700000*%
%ADD27R,1.800000X1.800000*%
%ADD28R,1.800000X2.600000*%
%ADD29O,1.800000X2.600000*%
%ADD30C,3.500000*%
%ADD31R,3.500000X2.500000*%
%ADD32O,1.750000X3.500000*%
G04 APERTURE END LIST*
D10*
D11*
X155250000Y-82250000D03*
D12*
X162850000Y-82250000D03*
D13*
X121000000Y-76000000D03*
D14*
X124500000Y-76000000D03*
D15*
X149700000Y-65500000D03*
X152300000Y-65500000D03*
X147600000Y-65500000D03*
X154400000Y-65500000D03*
X147600000Y-68000000D03*
X154400000Y-68000000D03*
D16*
X157750000Y-62500000D03*
X144250000Y-62500000D03*
D17*
X151000000Y-61700000D03*
D18*
X115270000Y-74730000D03*
X116540000Y-76000000D03*
D19*
X114000000Y-76000000D03*
D18*
X101270000Y-73730000D03*
X102540000Y-75000000D03*
D19*
X100000000Y-75000000D03*
D14*
X114750000Y-88250000D03*
D20*
X124910000Y-88250000D03*
D14*
X135100000Y-73530000D03*
D20*
X145260000Y-73530000D03*
D21*
X163250000Y-146250000D03*
X160750000Y-146250000D03*
X158250000Y-146250000D03*
D22*
X165750000Y-142950000D03*
X155750000Y-142950000D03*
D14*
X101000000Y-79000000D03*
D20*
X111160000Y-79000000D03*
D14*
X90750000Y-138000000D03*
D20*
X100910000Y-138000000D03*
D14*
X104000000Y-138000000D03*
D20*
X114160000Y-138000000D03*
D14*
X117000000Y-138000000D03*
D20*
X127160000Y-138000000D03*
D14*
X130000000Y-138000000D03*
D20*
X140160000Y-138000000D03*
D14*
X143000000Y-138000000D03*
D20*
X153160000Y-138000000D03*
D14*
X156000000Y-138000000D03*
D20*
X166160000Y-138000000D03*
D14*
X125000000Y-91750000D03*
D20*
X135160000Y-91750000D03*
D14*
X149750000Y-80000000D03*
D20*
X139590000Y-80000000D03*
D12*
X99500000Y-142000000D03*
X99500000Y-146500000D03*
X93000000Y-142000000D03*
X93000000Y-146500000D03*
X109500000Y-142000000D03*
X109500000Y-146500000D03*
X103000000Y-142000000D03*
X103000000Y-146500000D03*
X119500000Y-142000000D03*
X119500000Y-146500000D03*
X113000000Y-142000000D03*
X113000000Y-146500000D03*
X129750000Y-142000000D03*
X129750000Y-146500000D03*
X123250000Y-142000000D03*
X123250000Y-146500000D03*
X140000000Y-142000000D03*
X140000000Y-146500000D03*
X133500000Y-142000000D03*
X133500000Y-146500000D03*
X150500000Y-142000000D03*
X150500000Y-146500000D03*
X144000000Y-142000000D03*
X144000000Y-146500000D03*
D23*
X143627000Y-110350000D03*
X146167000Y-110350000D03*
X146167000Y-107810000D03*
X143627000Y-107810000D03*
X146167000Y-105270000D03*
X130800000Y-133210000D03*
X125720000Y-133210000D03*
X123180000Y-133210000D03*
X120640000Y-133210000D03*
X118100000Y-133210000D03*
X115560000Y-133210000D03*
X113020000Y-133210000D03*
X110480000Y-133210000D03*
X166360000Y-84950000D03*
X163820000Y-84950000D03*
X161280000Y-84950000D03*
X158740000Y-84950000D03*
X156200000Y-84950000D03*
X153660000Y-84950000D03*
X151120000Y-84950000D03*
X148580000Y-84950000D03*
X143500000Y-84950000D03*
X140960000Y-84950000D03*
X138420000Y-84950000D03*
X135880000Y-84950000D03*
X133340000Y-84950000D03*
X130800000Y-84950000D03*
X128260000Y-84950000D03*
X125720000Y-84950000D03*
X106416000Y-84950000D03*
X121656000Y-84950000D03*
X119116000Y-84950000D03*
X116576000Y-84950000D03*
D24*
X146040000Y-128130000D03*
X146040000Y-100190000D03*
X170170000Y-84950000D03*
X95240000Y-84950000D03*
X176520000Y-133210000D03*
X93970000Y-133210000D03*
D23*
X98796000Y-84950000D03*
X101336000Y-84950000D03*
X103876000Y-84950000D03*
X108956000Y-84950000D03*
X111496000Y-84950000D03*
X114036000Y-84950000D03*
X107940000Y-133210000D03*
X133340000Y-133210000D03*
X135880000Y-133210000D03*
X138420000Y-133210000D03*
X140960000Y-133210000D03*
X143500000Y-133210000D03*
X146040000Y-133210000D03*
X148580000Y-133210000D03*
X153660000Y-133210000D03*
X156200000Y-133210000D03*
X158740000Y-133210000D03*
X161280000Y-133210000D03*
X163820000Y-133210000D03*
X166360000Y-133210000D03*
X168900000Y-133210000D03*
X171440000Y-133210000D03*
X173980000Y-84950000D03*
X176520000Y-84950000D03*
X173980000Y-87490000D03*
X176520000Y-87490000D03*
X173980000Y-90030000D03*
X176520000Y-90030000D03*
X173980000Y-92570000D03*
X176520000Y-92570000D03*
X173980000Y-95110000D03*
X176520000Y-95110000D03*
X173980000Y-97650000D03*
X176520000Y-97650000D03*
X173980000Y-100190000D03*
X176520000Y-100190000D03*
X173980000Y-102730000D03*
X176520000Y-102730000D03*
X173980000Y-105270000D03*
X176520000Y-105270000D03*
X173980000Y-107810000D03*
X176520000Y-107810000D03*
X173980000Y-110350000D03*
X176520000Y-110350000D03*
X173980000Y-112890000D03*
X176520000Y-112890000D03*
X173980000Y-115430000D03*
X176520000Y-115430000D03*
X173980000Y-117970000D03*
X176520000Y-117970000D03*
X173980000Y-120510000D03*
X176520000Y-120510000D03*
X173980000Y-123050000D03*
X176520000Y-123050000D03*
X173980000Y-125590000D03*
X176520000Y-125590000D03*
X173980000Y-128130000D03*
X176520000Y-128130000D03*
X143627000Y-105270000D03*
D25*
X165000000Y-72750000D03*
X165000000Y-66750000D03*
X160300000Y-69750000D03*
D24*
X174000000Y-65000000D03*
X174000000Y-145000000D03*
X86000000Y-145000000D03*
X86000000Y-65000000D03*
D14*
X130260000Y-80160000D03*
X130260000Y-75160000D03*
X138560000Y-88290000D03*
X138560000Y-93290000D03*
X105560000Y-75720000D03*
X110560000Y-75720000D03*
X136000000Y-81000000D03*
X136000000Y-76000000D03*
D15*
X104590000Y-90990000D03*
X107130000Y-90990000D03*
X102050000Y-90990000D03*
D12*
X171340000Y-81830000D03*
X171340000Y-69830000D03*
X177340000Y-69830000D03*
X177340000Y-81830000D03*
D26*
X173090000Y-79830000D03*
X173090000Y-75830000D03*
X173090000Y-71830000D03*
D27*
X168000000Y-90000000D03*
D21*
X170540000Y-90000000D03*
D14*
X156750000Y-92250000D03*
D20*
X166910000Y-92250000D03*
D28*
X99500000Y-96750000D03*
D29*
X102040000Y-96750000D03*
X104580000Y-96750000D03*
X107120000Y-96750000D03*
X109660000Y-96750000D03*
X112200000Y-96750000D03*
X114740000Y-96750000D03*
X117280000Y-96750000D03*
X119820000Y-96750000D03*
X122360000Y-96750000D03*
X124900000Y-96750000D03*
X127440000Y-96750000D03*
X129980000Y-96750000D03*
X132520000Y-96750000D03*
X135060000Y-96750000D03*
X137600000Y-96750000D03*
D30*
X94000900Y-96750000D03*
X94000900Y-127750700D03*
X168999480Y-127750700D03*
X169000000Y-96750000D03*
D31*
X123250000Y-64154000D03*
D32*
X128250000Y-69160000D03*
X118250000Y-69160000D03*
X125750000Y-69160000D03*
X120750000Y-69160000D03*
D31*
X96750000Y-64154000D03*
D32*
X101750000Y-69160000D03*
X91750000Y-69160000D03*
X99250000Y-69160000D03*
X94250000Y-69160000D03*
D31*
X110000000Y-64154000D03*
D32*
X115000000Y-69160000D03*
X105000000Y-69160000D03*
X112500000Y-69160000D03*
X107500000Y-69160000D03*
D31*
X136500000Y-64154000D03*
D32*
X141500000Y-69160000D03*
X131500000Y-69160000D03*
X139000000Y-69160000D03*
X134000000Y-69160000D03*
M02*
